<?xml version="1.0" encoding="UTF-8" standalone="no"?>
<!-- Generator: Adobe Illustrator 22.0.1, SVG Export Plug-In . SVG Version: 6.00 Build 0)  -->

<svg
   xmlns:dc="http://purl.org/dc/elements/1.1/"
   xmlns:cc="http://creativecommons.org/ns#"
   xmlns:rdf="http://www.w3.org/1999/02/22-rdf-syntax-ns#"
   xmlns:svg="http://www.w3.org/2000/svg"
   xmlns="http://www.w3.org/2000/svg"
   xmlns:sodipodi="http://sodipodi.sourceforge.net/DTD/sodipodi-0.dtd"
   xmlns:inkscape="http://www.inkscape.org/namespaces/inkscape"
   version="1.1"
   id="Calque_1"
   x="0px"
   y="0px"
   viewBox="0 0 221 92"
   xml:space="preserve"
   inkscape:version="0.91 r13725"
   sodipodi:docname="floral.svg"
   width="221"
   height="92"><metadata
     id="metadata4169"><rdf:RDF><cc:Work
         rdf:about=""><dc:format>image/svg+xml</dc:format><dc:type
           rdf:resource="http://purl.org/dc/dcmitype/StillImage" /><dc:title></dc:title></cc:Work></rdf:RDF></metadata><defs
     id="defs4167" /><sodipodi:namedview
     pagecolor="#ffffff"
     bordercolor="#666666"
     borderopacity="1"
     objecttolerance="10"
     gridtolerance="10"
     guidetolerance="10"
     inkscape:pageopacity="0"
     inkscape:pageshadow="2"
     inkscape:window-width="1920"
     inkscape:window-height="1138"
     id="namedview4165"
     showgrid="false"
     inkscape:snap-bbox="true"
     inkscape:bbox-nodes="true"
     inkscape:zoom="2.2430556"
     inkscape:cx="216"
     inkscape:cy="216"
     inkscape:window-x="1912"
     inkscape:window-y="-8"
     inkscape:window-maximized="1"
     inkscape:current-layer="Calque_1" /><style
     type="text/css"
     id="style4137">
	.st0{fill:#940808;}
	.st1{fill:#E56B6B;}
	.st2{fill:#1A1A1A;}
	.st3{fill:#DD5151;}
	.st4{fill:#6B313C;}
	.st5{fill:#B65165;}
	.st6{fill:#EB899F;}
	.st7{fill:#9C0000;}
	.st8{fill:#4D4D4D;}
	.st9{fill:#C4924B;}
	.st10{fill:#333333;}
	.st11{fill-rule:evenodd;clip-rule:evenodd;fill:#9C0000;}
	.st12{fill:#F68484;}
	.st13{fill:#AB1F1F;}
	.st14{fill:#A45F6F;}
	.st15{fill:#DEB0B0;}
	.st16{fill:#BA3434;}
	.st17{fill:#A57B7C;}
	.st18{fill:#F2F2F2;}
	.st19{fill:#EC1C24;}
	.st20{fill:#A54550;}
	.st21{fill:#FFFFFF;}
	.st22{fill:#AE5B65;}
	.st23{fill:#F5D3D1;}
	.st24{fill:#687A6E;}
	.st25{fill:#231F20;}
	.st26{fill-rule:evenodd;clip-rule:evenodd;fill:#333333;}
	.st27{fill:#F4E6E5;}
	.st28{fill:#EFBB75;}
	.st29{fill:#D8A160;}
	.st30{fill:#EFDDCA;}
	.st31{fill:#A55B6A;}
	.st32{fill:#92A182;}
	.st33{fill:#CCCCCC;}
	.st34{fill:#944E3C;}
	.st35{fill:#C1272D;}
	.st36{fill:#C67B32;}
	.st37{fill:#72696D;}
	.st38{fill:#E3A8A4;}
	.st39{fill:#9FC8C2;}
	.st40{fill:#8B8285;}
	.st41{fill:#71796C;}
	.st42{fill-rule:evenodd;clip-rule:evenodd;fill:#E9C8C3;}
	.st43{fill:#C06666;}
	.st44{fill:#96A4A5;}
	.st45{fill:#C53C3C;}
	.st46{fill:#EA6B74;}
	.st47{fill:#406D8F;}
	.st48{fill:#77A3C0;}
	.st49{fill:#F25850;}
	.st50{fill:#253245;}
	.st51{fill:#FFAA96;}
	.st52{fill:#E0C8A4;}
	.st53{fill:#39ABA9;}
	.st54{fill:#F6DE96;}
	.st55{fill:#F1D2CD;}
	.st56{fill:#E8C3C3;}
	.st57{fill:#AB2130;}
	.st58{fill:#982A3A;}
	.st59{fill:#E19F78;}
	.st60{fill:#FEDED2;}
	.st61{fill:#FFB0A1;}
	.st62{fill:#DB3434;}
	.st63{fill:#C76B6A;}
	.st64{fill:#E05E90;}
	.st65{fill:#CE9F5C;}
	.st66{fill:#FF8D71;}
	.st67{fill:#B75041;}
	.st68{fill:#FCE4B6;}
	.st69{fill:#B24A58;}
	.st70{fill:#3C0303;}
	.st71{fill:#8B1111;}
	.st72{fill:#B02121;}
	.st73{fill:#29285B;}
	.st74{fill:#E6E6E6;}
	.st75{fill:#D59D79;}
	.st76{fill:#F0C880;}
	.st77{fill:#B3B3B3;}
	.st78{fill:#C6C6C6;}
	.st79{fill:#A6A6A6;}
	.st80{fill:#603813;}
	.st81{fill:#BC2A34;}
	.st82{fill:#999966;}
	.st83{fill:#666633;}
	.st84{fill:#CC6666;}
	.st85{fill:#663333;}
	.st86{fill-rule:evenodd;clip-rule:evenodd;fill:#FEDED2;}
	.st87{fill:#534741;}
</style><path
     class="st20"
     d="m 220.40054,18.66637 c -0.0999,-0.9991 -0.49955,-1.49865 -1.49864,-1.69847 -1.39874,-0.19982 -2.79747,-0.39964 -4.1962,-0.49955 -3.19711,-0.0999 -6.1944,0.79928 -8.99187,2.39783 -3.79656,2.09811 -7.09358,4.99548 -9.79114,8.2925 -1.29882,1.59855 -2.59764,3.29702 -3.79656,4.99548 -0.19982,0.19982 -0.29973,0.39964 -0.59946,0.49955 0.0999,-0.19982 0.0999,-0.39964 0.19982,-0.59946 1.39874,-3.89647 2.0981,-7.89286 1.99819,-11.98915 0,-2.89738 -0.39963,-5.79476 -0.69936,-8.69213 -0.19982,-1.89829 -0.39964,-3.79657 -0.69937,-5.69485 -0.19982,-1.39873 -0.59946,-2.69756 -1.39873,-3.79656 -0.19982,-0.29973 -0.49955,-0.59946 -0.69937,-0.79928 -0.69937,-0.49955 -1.49865,-0.29973 -1.69846,0.59946 -0.0999,0.39963 -0.0999,0.79927 -0.0999,1.29882 -0.19982,-0.0999 -0.39964,-0.0999 -0.49955,-0.19982 -0.29973,-0.0999 -0.59946,-0.19982 -0.89919,-0.19982 -1.39873,-0.0999 -2.19801,1.09901 -1.69846,2.29792 0.29973,0.69937 0.69937,1.19892 1.19891,1.69847 0.79928,0.59945 1.59856,1.29882 2.59765,1.79837 0.79928,0.39964 1.19892,0.99909 1.39874,1.79837 0.49954,2.19801 1.099,4.29611 1.39873,6.49412 0.39964,2.59765 0.19982,5.1953 -0.0999,7.89286 -0.39964,3.69666 -1.59855,7.09358 -3.0972,10.3906 -0.0999,0.0999 -0.0999,0.19982 -0.0999,0.39964 0,0 -0.0999,0 -0.0999,-0.0999 0,-0.19982 0,-0.29973 0.0999,-0.49955 0.79928,-5.1953 -0.59945,-9.89105 -3.99638,-13.88743 -2.49774,-2.99729 -5.79475,-4.49594 -9.69123,-4.49594 -2.79747,0 -5.29521,0.79928 -7.39331,2.59765 -2.49774,1.9982 -3.49683,4.59584 -3.09719,7.79295 0.39963,3.79657 2.49774,6.39421 5.79475,8.19259 1.09901,0.59945 2.29792,0.79927 3.59675,0.69936 2.79746,-0.19981 4.99548,-2.39783 5.09539,-5.19529 0,-0.89919 -0.0999,-1.69847 -0.49955,-2.49774 -0.0999,-0.19982 -0.19982,-0.39964 -0.39964,-0.49955 -0.29973,-0.19982 -0.59946,-0.29973 -0.89919,-0.19982 -0.29973,0.19982 -0.49955,0.39964 -0.39964,0.79928 0,0.29972 0.0999,0.49954 0.19982,0.69936 0.89919,2.49774 -0.99909,4.99548 -3.79656,4.79566 -0.39964,0 -0.89919,-0.0999 -1.29883,-0.19982 -2.99728,-1.099 -5.79475,-4.29611 -5.19529,-8.3924 0.29973,-1.99819 1.19891,-3.59675 2.89737,-4.69575 3.49684,-2.29792 7.09358,-2.39783 10.79024,-0.39964 2.0981,1.09901 3.59674,2.89738 4.59584,4.99548 1.79837,3.39693 2.39783,6.99367 1.39873,10.89014 -0.79927,2.99729 -2.49774,5.39512 -4.99547,7.2934 -2.29793,1.69847 -4.79566,2.89738 -7.49322,3.69666 -2.0981,0.69937 -4.19621,1.29882 -6.39422,1.59855 -2.49774,0.39964 -5.09539,0.79928 -7.69304,1.09901 -1.79837,0.19982 -3.59674,0.39964 -5.2952,0.49955 -0.0999,0 -0.19982,0 -0.29973,-0.0999 0.59946,-0.19982 1.19891,-0.49955 1.69846,-0.69937 1.59855,-0.59946 3.0972,-1.39874 4.39602,-2.39783 0.89919,-0.69937 1.79838,-1.59855 2.49774,-2.49774 0.19982,-0.29973 0.39964,-0.49955 0.89919,-0.49955 1.29882,-0.0999 2.39783,-0.79928 3.19711,-1.79837 0.49954,-0.59946 0.49954,-1.09901 0.19981,-1.59855 -0.39963,-0.49955 -0.89918,-0.69937 -1.49864,-0.49955 -0.49955,0.0999 -0.9991,0.29973 -1.49864,0.49955 0,-0.19982 -0.0999,-0.39964 -0.0999,-0.69937 -0.19982,-0.79928 -0.69937,-1.39874 -1.39874,-1.89828 -1.29882,-0.79928 -2.69756,-0.0999 -2.79747,1.49864 -0.0999,0.69937 0.19982,1.39873 0.49955,2.0981 0.19982,0.39964 0.49955,0.79928 0.69937,1.19892 0.29973,0.29972 0.19982,0.59945 0,0.89918 -0.19982,0.19982 -0.39964,0.39964 -0.49955,0.59946 -1.29882,1.19891 -2.79747,1.99819 -4.29611,2.69756 -2.59765,1.19891 -5.39512,1.99819 -8.19259,2.79747 -0.99909,0.29973 -1.99819,0.49954 -2.99728,0.79927 -0.49955,0.0999 -0.9991,0.29973 -1.59856,0.39964 -0.99909,0.19982 -1.99819,0.19982 -3.09719,0.39964 0.0999,-0.19982 0.0999,-0.29973 0.19982,-0.29973 1.49864,-1.29882 2.79746,-2.89738 3.99638,-4.59584 1.099,-1.59855 2.0981,-3.19711 3.19711,-4.79566 0.0999,-0.0999 0.0999,-0.19982 0.19981,-0.39964 0.39964,-0.79927 0.0999,-1.49864 -0.69936,-1.79837 -0.39964,-0.19982 -0.79928,-0.19982 -1.09901,-0.29973 -0.99909,-0.19982 -2.0981,-0.19982 -3.0972,-0.0999 -2.0981,0.0999 -4.09629,0.49955 -5.89466,1.39874 -2.39783,1.099 -4.29611,2.89737 -5.69485,5.09538 -0.89918,1.49865 -1.79837,3.0972 -2.69756,4.59585 -0.59945,1.099 -1.29882,2.0981 -1.99819,3.1971 -0.19982,0.29973 -0.49955,0.49955 -0.79927,0.59946 -5.99458,2.29792 -11.18988,5.69485 -15.68581,10.19078 -4.39602,-4.49593 -9.59132,-7.89286 -15.685804,-10.19078 -0.299729,-0.0999 -0.599458,-0.29973 -0.799277,-0.59946 -0.599458,-1.099 -1.298825,-2.0981 -1.998192,-3.1971 -0.899186,-1.49865 -1.698463,-3.0972 -2.697559,-4.59585 -1.398734,-2.19801 -3.297016,-3.99638 -5.694846,-5.09538 -1.898282,-0.89919 -3.896474,-1.29883 -5.894665,-1.39874 -0.999096,-0.0999 -2.098102,-0.0999 -3.097197,0.0999 -0.399639,0.0999 -0.799277,0.19982 -1.099006,0.29973 -0.799277,0.29973 -1.099005,0.9991 -0.699367,1.79837 0.09991,0.0999 0.09991,0.19982 0.199819,0.39964 1.099006,1.59855 2.098101,3.19711 3.197107,4.79566 1.099005,1.69846 2.39783,3.19711 3.996383,4.59584 0.09991,0.0999 0.09991,0.19982 0.199819,0.29973 -1.099005,-0.0999 -2.098101,-0.19982 -3.097197,-0.39964 -0.499548,-0.0999 -0.999096,-0.19982 -1.598553,-0.39964 -0.999096,-0.29973 -1.998192,-0.49954 -2.997288,-0.79927 -2.797468,-0.69937 -5.495027,-1.59856 -8.192585,-2.79747 -1.598554,-0.69937 -3.097198,-1.49865 -4.296113,-2.69756 -0.199819,-0.19982 -0.399638,-0.39964 -0.499547,-0.59946 -0.19982,-0.29973 -0.299729,-0.59946 0,-0.89918 0.299728,-0.39964 0.499547,-0.79928 0.699367,-1.19892 0.299728,-0.59946 0.599457,-1.29882 0.499548,-2.0981 -0.09991,-1.49864 -1.498644,-2.29792 -2.797469,-1.49864 -0.699367,0.39963 -1.198915,1.099 -1.398734,1.89828 -0.09991,0.19982 -0.09991,0.39964 -0.09991,0.69937 -0.499547,-0.19982 -0.999095,-0.39964 -1.498642,-0.49955 -0.599458,-0.19982 -1.099006,0 -1.498644,0.49955 -0.299729,0.49954 -0.199819,1.099 0.199819,1.59855 0.799277,0.99909 1.798372,1.69846 3.197106,1.79837 0.399638,0 0.599457,0.19982 0.899186,0.49955 0.699367,0.99909 1.498644,1.79837 2.49774,2.49774 1.298824,0.99909 2.797468,1.79837 4.396021,2.39783 0.599458,0.19982 1.198915,0.49955 1.698463,0.69937 -0.09991,0.0999 -0.199819,0.0999 -0.299729,0.0999 -1.798372,-0.19982 -3.596745,-0.29973 -5.295207,-0.49955 -2.59765,-0.29973 -5.095389,-0.69937 -7.693037,-1.09901 -2.198011,-0.39964 -4.296113,-0.99909 -6.394214,-1.59855 -2.697559,-0.89919 -5.195298,-2.0981 -7.493219,-3.69666 -2.497739,-1.79837 -4.196202,-4.29611 -4.995479,-7.2934 -0.999096,-3.79656 -0.399638,-7.39331 1.398734,-10.89014 1.099006,-2.0981 2.59765,-3.79656 4.595841,-4.99548 3.696655,-1.99819 7.2934,-1.89828 10.790235,0.39964 1.698463,1.099 2.597649,2.69756 2.897378,4.69575 0.499548,4.09629 -2.29792,7.2934 -5.195298,8.3924 -0.399638,0.0999 -0.899186,0.19982 -1.298825,0.19982 -2.797468,0.19982 -4.69575,-2.29792 -3.796564,-4.79566 0.09991,-0.19982 0.199819,-0.49954 0.199819,-0.69936 0.09991,-0.39964 -0.09991,-0.59946 -0.399638,-0.79928 -0.299729,-0.19982 -0.599458,-0.0999 -0.899186,0.19982 -0.09991,0.0999 -0.299729,0.29973 -0.399639,0.49955 -0.399638,0.79927 -0.599457,1.59855 -0.499548,2.49774 0.09991,2.79746 2.297921,4.99548 5.095389,5.19529 1.298825,0.0999 2.49774,-0.19981 3.596745,-0.69936 3.297016,-1.69847 5.395117,-4.39602 5.794755,-8.19259 0.399638,-3.0972 -0.699367,-5.79475 -3.097196,-7.79295 -2.198011,-1.69846 -4.69575,-2.59765 -7.393309,-2.59765 -3.896474,0 -7.19349,1.49865 -9.69123,4.49594 -3.396926,3.99638 -4.69575,8.69213 -3.996383,13.88743 0,0.19982 0,0.29973 0.09991,0.49955 0,0 -0.09991,0 -0.09991,0.0999 0,-0.0999 -0.09991,-0.29973 -0.09991,-0.39964 -1.598553,-3.29702 -2.697559,-6.79385 -3.097197,-10.3906 -0.299729,-2.59765 -0.499548,-5.1953 -0.09991,-7.89286 0.299729,-2.19801 0.899187,-4.39602 1.398735,-6.49412 0.199819,-0.89919 0.599457,-1.39873 1.398734,-1.79837 0.899186,-0.49955 1.698463,-1.19892 2.597649,-1.79837 0.599458,-0.39964 0.999096,-0.9991 1.198915,-1.69847 0.499548,-1.29882 -0.399638,-2.49774 -1.698463,-2.29792 -0.299729,0 -0.599457,0.0999 -0.899186,0.19982 -0.199819,0 -0.299729,0.0999 -0.499548,0.19982 0,-0.39964 0,-0.89919 -0.09991,-1.29882 -0.199819,-0.79928 -0.999096,-1.09901 -1.698463,-0.59946 -0.299728,0.19982 -0.499548,0.49955 -0.699367,0.79928 -0.799276,1.19891 -1.198915,2.49773 -1.398734,3.79656 -0.299729,1.89828 -0.499548,3.79656 -0.699367,5.69485 -0.399638,2.89737 -0.699367,5.79475 -0.699367,8.69213 0,4.09629 0.699367,8.09268 1.998192,11.98915 0.09991,0.19982 0.09991,0.39964 0.199819,0.59946 -0.299729,-0.0999 -0.399639,-0.29973 -0.599458,-0.49955 C 26.975628,30.4557 25.776713,28.85714 24.477888,27.15868 21.68042,23.76175 18.483313,20.96429 14.686749,18.86618 11.889281,17.26763 8.9919026,16.36844 5.6948863,16.46835 4.2961521,16.56825 2.8974179,16.66817 1.4986838,16.9679 0.49954793,17.16772 0.09990958,17.66727 0,18.66637 c 0,0.29972 0,0.69936 0,0.99909 0.29972876,4.49593 1.7983725,8.59223 4.79566,11.98915 1.9981917,2.29792 4.2961122,4.1962 6.993671,5.59494 4.196202,2.19801 8.792043,3.29701 13.387884,3.99638 1.498644,0.19982 2.997288,0.49955 4.495931,0.79928 2.098102,0.39964 4.096293,1.29882 6.094485,2.0981 1.798373,0.79928 3.496836,1.59855 5.295208,2.39783 0.599458,0.29973 1.099005,0.59946 1.698463,0.89919 0,0 0,0.0999 0,0.0999 -0.09991,0 -0.199819,0 -0.299729,0 -2.797468,-0.0999 -5.594936,0 -8.392405,0.59945 -1.298824,0.29973 -2.497739,0.59946 -3.796564,0.9991 -1.099005,0.39964 -2.198011,0.39964 -3.297016,-0.0999 -0.799277,-0.39964 -1.698463,-0.59946 -2.597649,-0.59946 -0.399639,0 -0.899187,0 -1.298825,0.0999 -0.599458,0.0999 -0.999096,0.49955 -1.099006,1.09901 -0.09991,0.59945 0.399639,0.99909 0.899187,1.29882 0.299729,0.0999 0.599457,0.19982 0.899186,0.29973 0.199819,0.0999 0.299729,0.0999 0.499548,0.19982 -0.299729,0.49955 -0.599458,0.99909 -0.799277,1.49864 -0.299728,0.79928 -0.09991,1.69847 0.499548,2.19801 0.699367,0.49955 1.498644,0.49955 2.198011,0.0999 0.599458,-0.39964 1.198915,-0.79927 1.698463,-1.29882 0.699367,-0.69937 1.398734,-1.59855 2.098101,-2.39783 0.199819,-0.29973 0.499548,-0.49955 0.799277,-0.59946 2.597649,-0.89919 5.295208,-1.49864 7.992767,-1.59855 3.696654,-0.19982 7.293399,0.19982 10.990054,0.79927 0.09991,0 0.299729,0.0999 0.499548,0.0999 -0.09991,0.0999 -0.09991,0.0999 -0.199819,0.0999 -0.19982,0 -0.399639,0.0999 -0.599458,0.0999 -1.598553,0.19982 -3.097197,0.69937 -4.495931,1.39874 -5.295208,2.59765 -8.392405,6.79385 -9.491411,12.4887 -0.09991,0.69936 -0.09991,1.39873 0,2.0981 0.19982,0.89918 0.799277,1.39873 1.798373,1.29882 0.199819,0 0.499548,-0.0999 0.699367,-0.0999 2.29792,-0.49955 4.595841,-0.89918 6.893761,-1.39873 4.595841,-0.9991 8.891953,-2.59765 12.788426,-5.1953 1.298825,-0.89919 2.697559,-1.69846 3.996383,-2.59765 1.798373,-1.19892 3.596745,-2.29792 5.495028,-3.49684 1.598553,-0.99909 3.297016,-1.69846 5.095388,-2.0981 1.598554,-0.39964 3.197107,-0.29973 4.79566,0 -0.09991,0.0999 -0.299728,0.19982 -0.499548,0.29973 -3.696654,1.49865 -6.594032,3.89648 -8.891953,7.09358 -1.798372,2.59765 -2.697558,5.39512 -2.497739,8.49232 0.499548,6.2943 5.495027,10.99005 11.389692,11.08996 2.697559,0.0999 4.99548,-0.79928 6.693943,-2.89738 0.699367,-0.89918 1.198915,-1.79837 1.498643,-2.89738 0.699367,-2.29792 0.399639,-4.49593 -1.099005,-6.39421 -1.898282,-2.59765 -5.395118,-1.59855 -6.693942,0.49955 -0.299729,0.49955 -0.399639,0.9991 -0.299729,1.59855 0,0.29973 0.199819,0.49955 0.499548,0.59946 0.299729,0.0999 0.599457,0 0.699367,-0.29973 0.09991,-0.19982 0.199819,-0.49955 0.399638,-0.69937 0.09991,-0.19981 0.299729,-0.49954 0.399639,-0.69936 1.099005,-1.19892 2.797468,-0.9991 3.696654,0.39964 0.899187,1.49864 1.099006,2.99728 0.399639,4.69575 -0.899187,2.19801 -2.39783,3.69665 -4.79566,3.99638 -1.898283,0.29973 -3.796565,0 -5.495028,-0.89919 -4.79566,-2.49774 -6.693942,-8.3924 -4.396021,-13.28797 1.298824,-2.79747 3.297016,-4.99548 5.794756,-6.69394 4.096293,-2.79747 8.592224,-3.39693 13.387884,-2.79747 2.198011,0.29973 4.396022,0.99909 6.594032,1.59855 0.999096,0.29973 1.898283,0.69937 2.797469,1.09901 0.09991,0.0999 0.299729,0.19982 0.499548,0.29973 -0.399639,0.0999 -0.699367,0.0999 -0.899187,0.19981 -2.697558,0.59946 -4.79566,2.09811 -5.994575,4.59585 -0.299728,0.59945 -0.499547,1.29882 -0.299728,1.99819 0.199819,0.89918 0.999096,1.39873 1.798372,0.99909 0.199819,-0.0999 0.499548,-0.19982 0.699367,-0.29973 0.199819,0.29973 0.399639,0.69937 0.599458,0.9991 0.599457,0.69937 1.598553,0.59946 2.098101,-0.19982 0.199819,-0.29973 0.299729,-0.59946 0.299729,-0.89919 0,-0.49954 0,-0.89918 0,-1.39873 0,-0.49955 -0.09991,-0.89919 -0.09991,-1.39873 0,-1.39874 0.699367,-2.49774 1.998192,-2.69756 1.598553,-0.39964 3.197106,-0.19982 4.695756,0.69936 2.49773,1.59856 4.69575,3.49684 6.79385,5.59494 -0.39964,0.49955 -0.89919,0.9991 -1.29883,1.49865 -2.0981,2.49773 -3.89647,5.19529 -5.1953,8.19258 -1.69846,4.09629 -2.697553,8.39241 -2.497733,12.88834 0,0.99909 0.199813,2.0981 0.599453,3.09719 0.19982,0.39964 0.29973,0.89919 0.79928,1.09901 0.29973,-0.0999 0.39964,-0.39964 0.39964,-0.59946 0,-0.49955 0,-0.99909 0,-1.49864 -0.19982,-2.19801 0,-4.29611 0.29973,-6.49412 0.79927,-4.69575 2.59764,-8.89196 5.39511,-12.78843 0.9991,-1.29883 1.99819,-2.59765 3.19711,-3.89647 1.09901,1.19891 2.19801,2.49773 3.19711,3.89647 2.79747,3.79656 4.59584,8.09268 5.39511,12.78843 0.39964,2.0981 0.49955,4.29611 0.29973,6.49412 0,0.49955 0,0.99909 0,1.49864 0,0.19982 0,0.49955 0.39964,0.59946 0.39964,-0.29973 0.59946,-0.69937 0.79928,-1.09901 0.39964,-0.99909 0.49955,-1.99819 0.59946,-3.09719 0.0999,-4.49593 -0.79928,-8.79205 -2.49774,-12.88834 -1.29883,-2.99729 -3.19711,-5.69485 -5.1953,-8.19258 -0.39964,-0.49955 -0.89919,-0.9991 -1.29883,-1.49865 2.0981,-2.0981 4.29612,-3.99638 6.79385,-5.59494 1.49865,-0.99909 2.99729,-1.099 4.69576,-0.69936 1.29882,0.29973 1.99819,1.39873 1.99819,2.69756 0,0.49954 -0.0999,0.89918 -0.0999,1.39873 0,0.49955 -0.0999,0.89919 0,1.39873 0,0.29973 0.0999,0.59946 0.29973,0.89919 0.49954,0.79928 1.49864,0.89919 2.0981,0.19982 0.19982,-0.29973 0.39964,-0.59946 0.59945,-0.9991 0.19982,0.0999 0.39964,0.19982 0.69937,0.29973 0.89919,0.29973 1.69846,-0.0999 1.79837,-0.99909 0.0999,-0.69937 0,-1.39874 -0.29972,-1.99819 -1.29883,-2.49774 -3.29702,-3.99639 -5.99458,-4.59585 -0.29973,-0.0999 -0.49955,-0.0999 -0.89919,-0.19981 0.19982,-0.0999 0.29973,-0.29973 0.49955,-0.29973 0.89919,-0.39964 1.89828,-0.89919 2.79747,-1.09901 2.19801,-0.59946 4.39602,-1.29882 6.59403,-1.59855 4.79566,-0.69937 9.29159,0 13.38789,2.79747 2.49774,1.69846 4.49593,3.89647 5.79475,6.69394 2.29792,4.89557 0.29973,10.79023 -4.39602,13.28797 -1.69846,0.89919 -3.59674,1.19892 -5.49503,0.89919 -2.39783,-0.39964 -3.89647,-1.79837 -4.79566,-3.99638 -0.69936,-1.59856 -0.49954,-3.19711 0.39964,-4.69575 0.89919,-1.39874 2.59765,-1.49865 3.69666,-0.39964 0.19982,0.19982 0.29973,0.49955 0.39964,0.69936 0.0999,0.19982 0.19981,0.49955 0.39963,0.69937 0.19982,0.19982 0.39964,0.29973 0.69937,0.29973 0.29973,-0.0999 0.49955,-0.29973 0.49955,-0.59946 0.0999,-0.59945 0,-1.099 -0.29973,-1.59855 -1.29882,-2.0981 -4.69575,-3.0972 -6.69394,-0.49955 -1.49865,1.89828 -1.69846,4.09629 -1.09901,6.39421 0.29973,1.09901 0.79928,1.9982 1.49865,2.89738 1.69846,2.0981 3.99638,2.99729 6.69394,2.89738 5.99457,-0.0999 10.89014,-4.79566 11.38969,-11.08996 0.29973,-3.0972 -0.69937,-5.99458 -2.49774,-8.49232 -2.29792,-3.1971 -5.1953,-5.69484 -8.89195,-7.09358 -0.19982,-0.0999 -0.29973,-0.19982 -0.49955,-0.29973 1.59855,-0.29973 3.19711,-0.39964 4.79566,0 1.79837,0.49955 3.49684,1.09901 5.09539,2.0981 1.79837,1.09901 3.69665,2.29792 5.49503,3.49684 1.29882,0.79928 2.69756,1.69846 3.99638,2.59765 3.89647,2.49774 8.19259,4.1962 12.78843,5.1953 2.29792,0.49955 4.59584,0.89918 6.89376,1.39873 0.19982,0 0.49955,0.0999 0.69937,0.0999 0.89918,0.0999 1.59855,-0.39964 1.79837,-1.29882 0.0999,-0.69937 0.19982,-1.49865 0,-2.0981 -1.09901,-5.79476 -4.1962,-9.99096 -9.49141,-12.4887 -1.39874,-0.69937 -2.89738,-1.19892 -4.49593,-1.39874 -0.19982,0 -0.39964,-0.0999 -0.59946,-0.0999 0,0 -0.0999,0 -0.19982,-0.0999 0.19982,-0.0999 0.29973,-0.0999 0.49955,-0.0999 3.59674,-0.59945 7.2934,-0.99909 10.99005,-0.79927 2.79747,0.0999 5.39512,0.69936 7.99277,1.59855 0.29973,0.0999 0.59946,0.29973 0.79927,0.59946 0.69937,0.79928 1.29883,1.59855 2.09811,2.39783 0.49954,0.49955 1.099,0.99909 1.69846,1.29882 0.69937,0.39964 1.49864,0.49955 2.19801,-0.0999 0.59946,-0.49954 0.89919,-1.39873 0.49955,-2.19801 -0.19982,-0.49955 -0.49955,-0.99909 -0.79928,-1.49864 0.19982,0 0.29973,-0.0999 0.49955,-0.19982 0.29973,-0.0999 0.59946,-0.19982 0.89919,-0.29973 0.49954,-0.19982 0.99909,-0.59946 0.89918,-1.29882 -0.0999,-0.59946 -0.49955,-0.9991 -1.099,-1.09901 -0.39964,-0.0999 -0.89919,-0.0999 -1.29883,-0.0999 -0.89918,0 -1.79837,0.19982 -2.59765,0.59946 -1.099,0.49955 -2.0981,0.49955 -3.29701,0.0999 -1.19892,-0.39964 -2.49774,-0.69937 -3.79657,-0.9991 -2.79747,-0.69936 -5.59493,-0.69936 -8.3924,-0.59945 -0.0999,0 -0.19982,0 -0.29973,0 0,0 0,-0.0999 0,-0.0999 0.59946,-0.29973 1.099,-0.59946 1.69846,-0.89919 1.79837,-0.79928 3.49684,-1.59855 5.29521,-2.39783 1.99819,-0.89919 3.99638,-1.69846 6.09448,-2.0981 1.49865,-0.29973 2.99729,-0.59946 4.49593,-0.79928 4.69576,-0.79928 9.19169,-1.79837 13.38789,-3.99638 2.69756,-1.39874 5.09539,-3.29702 6.99367,-5.59494 2.89738,-3.49683 4.49593,-7.49322 4.79566,-11.98915 -0.59946,-0.29973 -0.59946,-0.69937 -0.59946,-0.99909 z M 27.175407,34.6519 c 0.799277,1.099 1.598553,1.99819 2.29792,2.99729 0,0 -0.09991,0.0999 -0.09991,0.0999 -0.899187,-0.49955 -1.698463,-1.09901 -2.697559,-1.69847 0.199819,-0.39964 0.399638,-0.89918 0.499548,-1.39873 z m -4.79566,-6.09449 c 0,0 0.09991,0 0.09991,-0.0999 0.599458,0.79928 1.298825,1.59856 1.898283,2.39783 0.499547,0.69937 0.999095,1.39874 1.598553,1.9982 0.199819,0.19982 0.199819,0.39963 0.09991,0.69936 -0.199819,0.49955 -0.299728,0.9991 -0.499547,1.59856 -0.299729,-0.19982 -0.499548,-0.29973 -0.799277,-0.49955 -0.599458,-0.39964 -1.198915,-0.79928 -1.798373,-1.19892 -0.299728,-0.19982 -0.399638,-0.29973 -0.399638,-0.69936 -0.09991,-1.39874 -0.199819,-2.79747 -0.299729,-4.19621 0,0.19982 0.09991,0.0999 0.09991,0 z m -4.495931,-4.69575 c 0.299728,0.19982 0.499547,0.39964 0.799276,0.59946 0.599458,0.59946 1.298825,1.19892 1.898282,1.79837 0.199819,0.19982 0.299729,0.39964 0.299729,0.69937 0.199819,1.49864 0.299729,2.99729 0.499548,4.49593 0,0.29973 0.09991,0.59946 0.09991,0.89919 -0.19982,-0.0999 -0.299729,-0.0999 -0.399639,-0.19982 -0.899186,-0.59946 -1.798372,-1.29883 -2.697559,-1.89828 -0.199819,-0.0999 -0.399638,-0.19982 -0.399638,-0.49955 0,-1.89828 -0.09991,-3.79657 -0.09991,-5.59494 -0.09991,-0.0999 0,-0.0999 0,-0.29973 z M 11.98915,20.0651 c 0.09991,0 0.299729,0 0.399638,0.0999 1.198915,0.69937 2.39783,1.49864 3.596745,2.19801 0.19982,0.0999 0.399639,0.29973 0.399639,0.49955 0.09991,1.99819 0.199819,4.09629 0.399638,6.19439 -0.599457,-0.39964 -1.198915,-0.79927 -1.698463,-1.19891 -0.899186,-0.59946 -1.698463,-1.19892 -2.597649,-1.89829 -0.199819,-0.0999 -0.299729,-0.29972 -0.299729,-0.59945 0,-1.79838 0,-3.49684 -0.09991,-5.29521 -0.199819,0.0999 -0.09991,0.0999 -0.09991,0 z M 7.5931284,18.56646 c 0.8991862,0.0999 1.7983724,0.29972 2.6975586,0.69936 0.09991,0 0.199819,0.29973 0.199819,0.39964 0.09991,1.59855 0.09991,3.19711 0.199819,4.79566 0,0.0999 0,0.19982 0,0.39964 C 9.3915008,23.96157 8.2924955,23.06239 7.1934901,22.26311 7.2933991,20.96429 7.3933092,19.76537 7.5931284,18.56646 Z M 5.994575,18.46656 c 0,0.99909 -0.099909,1.79837 -0.099909,2.79746 -1.198915,-0.89918 -2.2979205,-1.69846 -3.4968355,-2.69755 1.2988246,-0.19982 2.39783,-0.19982 3.596745,-0.0999 z M 31.2717,40.74638 c -0.09991,0 -0.199819,0 -0.399639,-0.0999 -2.19801,-0.49954 -4.296112,-0.99909 -6.494122,-1.49864 -2.49774,-0.49955 -4.99548,-0.9991 -7.39331,-1.89828 C 13.188065,35.95073 9.7911391,34.25227 6.8937613,31.35489 3.8964738,28.3576 1.9981917,24.66095 1.4986438,20.46475 c 0,-0.0999 0,-0.29973 0,-0.59946 4.6957504,3.99638 9.5913202,7.59313 14.4868892,10.99005 4.89557,3.49684 9.990959,6.69395 15.286167,9.59132 0.09991,0.29973 0,0.29973 0,0.29973 z m 31.671337,12.08906 c 0,0 0,0.0999 0,0.0999 -1.798373,0.49955 -3.596745,0.89919 -5.395118,1.39874 -0.499547,-0.59946 -1.099005,-1.29883 -1.698462,-1.99819 2.39783,0.19981 4.69575,0.29972 7.09358,0.49954 z m -14.886527,0.0999 c 1.598553,-0.39964 3.097197,-0.59945 4.69575,-0.69936 0.19982,0 0.399639,0.0999 0.599458,0.19981 0.899186,0.69937 1.698462,1.49865 2.497739,2.29793 -0.299729,0.29972 -3.097197,1.29882 -4.096292,1.59855 -1.398735,-1.09901 -2.697559,-2.19801 -3.996384,-3.29702 0,0 0.199819,-0.0999 0.299729,-0.0999 z m -6.793852,3.79657 c 1.198915,-1.09901 2.49774,-1.99819 3.996384,-2.69756 0.299728,-0.0999 0.499548,-0.19982 0.799276,0 1.398734,0.89918 2.697559,1.79837 4.096293,3.0972 -0.199819,0.0999 -0.399638,0.0999 -0.499548,0.19981 -1.398734,0.59946 -2.797468,1.19892 -4.196202,1.69847 -0.199819,0.0999 -0.499548,0.0999 -0.599458,0 -1.198915,-0.79928 -2.497739,-1.29883 -3.796564,-1.69847 0,0 -0.09991,-0.0999 -0.09991,-0.0999 0,-0.19981 0.19982,-0.39963 0.299729,-0.49954 z m -4.196202,7.2934 c 0.299728,-1.69847 1.498643,-4.29612 2.597649,-5.29521 1.099005,0.39964 2.198011,0.79928 3.396926,1.29882 -0.599458,0.29973 -1.099006,0.59946 -1.598554,0.89919 -0.499548,0.29973 -0.999095,0.59946 -1.598553,0.89919 -0.499548,0.29972 -0.999096,0.59945 -1.398734,0.99909 -0.399638,0.29973 -0.799277,0.69937 -1.398734,1.19892 z m 26.0764,-8.89196 c -2.497739,1.59856 -4.895569,3.19711 -7.393309,4.69575 -3.696654,2.39783 -7.693037,3.89648 -11.989149,4.99548 -1.698463,0.39964 -3.396926,0.69937 -5.095389,1.09901 -0.199819,0 -0.399638,0.0999 -0.699367,0 0.199819,-0.19982 0.399638,-0.39964 0.599457,-0.59946 1.099006,-0.99909 2.297921,-1.89828 3.596745,-2.49774 1.798373,-0.89918 3.596746,-1.69846 5.495028,-2.49774 3.696654,-1.49864 7.393308,-2.99729 11.189872,-4.1962 1.398734,-0.39964 2.697559,-0.79928 4.096293,-1.19892 0.09991,0 0.299729,-0.0999 0.599457,-0.0999 -0.299728,0.19982 -0.399638,0.29973 -0.399638,0.29973 z M 81.42631,42.04521 c 1.398734,0.49955 2.597649,1.29882 3.596745,2.29792 0.09991,0.0999 0.199819,0.19982 0.199819,0.39964 -0.09991,0.89918 -0.199819,1.79837 -0.299729,2.79747 C 84.723326,47.34042 84.523507,47.1406 84.323688,47.04069 83.424502,46.24141 82.525315,45.34222 81.626129,44.54295 81.42631,44.34313 81.3264,44.14331 81.3264,43.84358 c 0.09991,-0.59946 0.09991,-1.099 0.09991,-1.79837 z m -1.598553,-0.49955 c 0.09991,0.49955 0.09991,0.9991 0.199819,1.59855 -0.599458,-0.39963 -1.099006,-0.69936 -1.598553,-0.99909 -0.499548,-0.29973 -0.999096,-0.59946 -1.498644,-0.9991 0.999096,-0.0999 1.898282,0.19982 2.897378,0.39964 z m 4.396021,10.19078 c -1.998191,-0.79928 -3.696654,-1.99819 -5.195298,-3.59675 -1.698463,-1.79837 -2.997288,-3.79656 -4.296112,-5.89466 0,0 0,-0.0999 0,-0.19982 1.598553,0.69937 2.897378,1.49864 4.196202,2.49774 1.498644,1.19891 2.997288,2.49774 4.296113,3.89647 1.198915,1.19892 2.39783,2.39783 3.496835,3.59675 -0.599458,0.19982 -1.598553,0.0999 -2.49774,-0.29973 z m 3.396926,-1.29883 c -0.499548,-0.59945 -0.999096,-0.99909 -1.498644,-1.49864 -0.09991,-0.0999 -0.199819,-0.29973 -0.09991,-0.39964 0.199819,-0.79928 0.399638,-1.49864 0.699367,-2.29792 0.599457,0.69937 0.999096,1.39873 1.498644,2.19801 0,0.0999 0,0.0999 0,0.19982 -0.199819,0.49955 -0.299729,1.09901 -0.599458,1.79837 z m 1.298825,0.9991 c 0.09991,-0.39964 0.199819,-0.69937 0.399638,-1.19892 0.499548,0.79928 0.999096,1.59856 1.398734,2.29792 -0.699367,-0.19981 -1.298824,-0.59945 -1.798372,-1.099 z m 40.163651,1.099 c 0.49955,-0.69936 0.89919,-1.39873 1.39874,-2.29792 0.19982,0.49955 0.29973,0.79928 0.39964,1.19892 -0.49955,0.49955 -1.09901,0.89919 -1.79838,1.099 z m 10.89015,-10.99005 c 0.99909,-0.19982 1.89828,-0.49955 2.89738,-0.39964 -0.49955,0.39964 -0.9991,0.69937 -1.49865,0.9991 -0.49955,0.29973 -0.99909,0.59946 -1.59855,0.99909 0.0999,-0.59945 0.0999,-1.099 0.19982,-1.59855 z m -5.29521,2.79747 c 0.9991,-0.9991 2.19801,-1.79837 3.59674,-2.29792 0,0.59946 0,1.19891 0.0999,1.69846 0,0.29973 -0.0999,0.49955 -0.29972,0.69937 -0.89919,0.79927 -1.79838,1.69846 -2.69756,2.49774 -0.19982,0.19982 -0.29973,0.29973 -0.59946,0.49955 -0.0999,-0.9991 -0.19982,-1.89829 -0.29973,-2.79747 0.0999,0 0.19982,-0.19982 0.19982,-0.29973 z m -2.49774,6.09448 c -0.29973,-0.69936 -0.39964,-1.29882 -0.59946,-1.89828 0,-0.0999 0,-0.0999 0,-0.19982 0.39964,-0.69937 0.89919,-1.49864 1.49865,-2.19801 0.19982,0.79928 0.49954,1.59855 0.69936,2.29792 0,0.0999 0,0.29973 -0.0999,0.39964 -0.49954,0.59946 -0.89918,0.9991 -1.49864,1.59855 z m 3.39693,1.29883 c -0.89919,0.39964 -1.89829,0.49955 -2.49774,0.29973 1.19891,-1.19892 2.39783,-2.39783 3.49683,-3.59675 1.29883,-1.39873 2.79747,-2.69756 4.29611,-3.89647 1.29883,-0.9991 2.69756,-1.79837 4.19621,-2.49774 0,0.19982 0,0.19982 0,0.19982 -1.29883,2.0981 -2.59765,4.09629 -4.29612,5.89466 -1.49864,1.59856 -3.29701,2.79747 -5.19529,3.59675 z m 21.28074,1.099 c 2.29792,-0.19982 4.69575,-0.29973 7.09358,-0.49954 -0.59946,0.69936 -1.19892,1.39873 -1.69847,1.99819 -1.79837,-0.49955 -3.59674,-0.9991 -5.39511,-1.39874 0,0 0,-0.0999 0,-0.0999 z m 24.27803,13.08816 c -1.69847,-0.39964 -3.39693,-0.69937 -5.09539,-1.09901 -4.29611,-0.99909 -8.2925,-2.59765 -11.98915,-4.99548 -2.49774,-1.59855 -4.89557,-3.1971 -7.39331,-4.69575 -0.0999,0 -0.0999,-0.0999 -0.29973,-0.29973 0.29973,0.0999 0.49955,0.0999 0.59946,0.0999 1.39873,0.39964 2.69756,0.69937 4.09629,1.19892 3.79656,1.19891 7.49322,2.69756 11.18987,4.1962 1.89829,0.69937 3.69666,1.59856 5.49503,2.49774 1.29882,0.59946 2.49774,1.49865 3.59675,2.49774 0.19981,0.19982 0.39963,0.39964 0.59945,0.59946 -0.39964,0 -0.59945,0 -0.79927,0 z m 1.59855,-1.89828 c -0.49955,-0.49955 -0.9991,-0.89919 -1.39873,-1.19892 -0.49955,-0.39964 -0.89919,-0.69937 -1.39874,-0.99909 -0.49955,-0.29973 -0.99909,-0.59946 -1.59855,-0.89919 -0.49955,-0.29973 -0.9991,-0.49955 -1.59856,-0.89919 1.29883,-0.49954 2.39783,-0.89918 3.39693,-1.29882 0.9991,0.99909 2.29792,3.59674 2.59765,5.29521 z m -8.19259,-9.99096 c 1.49865,0.69937 2.79747,1.59855 3.99639,2.69756 0.0999,0.0999 0.29973,0.29973 0.39964,0.49954 -0.0999,0.0999 -0.0999,0.0999 -0.0999,0.0999 -1.29883,0.39964 -2.59765,0.89919 -3.79657,1.69847 -0.19982,0.0999 -0.49955,0.0999 -0.59946,0 -1.39873,-0.59946 -2.79746,-1.09901 -4.1962,-1.69847 -0.0999,-0.0999 -0.29973,-0.0999 -0.49955,-0.19981 1.29883,-1.29883 2.69756,-2.29793 4.0963,-3.0972 0.19982,-0.19982 0.39963,-0.19982 0.69936,0 z m -2.79746,-1.09901 c 0.0999,0 0.19981,0.0999 0.29972,0.0999 -1.39873,1.09901 -2.69755,2.19801 -3.99638,3.29702 -0.9991,-0.29973 -3.69665,-1.29883 -4.09629,-1.59855 0.69936,-0.89919 1.59855,-1.69847 2.49774,-2.29793 0.19982,-0.0999 0.39964,-0.19981 0.59945,-0.19981 1.59856,0.0999 3.19711,0.29972 4.69576,0.69936 z m 45.65867,-34.36889 c -1.19891,0.89918 -2.29792,1.69846 -3.49683,2.69755 0,-0.99909 -0.0999,-1.89828 -0.0999,-2.79746 1.19891,-0.0999 2.29792,-0.0999 3.59674,0.0999 z m -8.19258,5.89466 c 0.0999,-1.59855 0.0999,-3.19711 0.19982,-4.79566 0,-0.0999 0.0999,-0.29973 0.19982,-0.39964 0.89918,-0.29973 1.69846,-0.59945 2.69756,-0.69936 0.19982,1.19891 0.29972,2.39783 0.49954,3.59674 -1.099,0.79928 -2.29792,1.69846 -3.49683,2.59765 -0.0999,-0.19982 -0.0999,-0.29973 -0.0999,-0.29973 z m -5.69485,-1.49864 c 0,-0.19982 0.19982,-0.39964 0.39964,-0.49955 1.19892,-0.79928 2.39783,-1.49864 3.59675,-2.19801 0.0999,-0.0999 0.19982,-0.0999 0.39963,-0.0999 0,0.0999 0,0.0999 0,0.19982 0,1.79837 -0.0999,3.49683 -0.0999,5.29521 0,0.29972 -0.19981,0.39963 -0.29972,0.59945 -0.89919,0.59946 -1.69847,1.19892 -2.59765,1.89829 -0.49955,0.39963 -1.09901,0.79927 -1.69847,1.19891 0,-2.39783 0.0999,-4.39602 0.29973,-6.39421 z m -4.99548,8.49231 c 0.19982,-1.49864 0.29973,-2.99729 0.49955,-4.49593 0,-0.19982 0.19982,-0.49955 0.29973,-0.69937 0.59946,-0.59945 1.29882,-1.19891 1.89828,-1.79837 0.19982,-0.19982 0.49955,-0.39964 0.79928,-0.59946 0,0.0999 0.0999,0.19982 0.0999,0.29973 0,1.89828 -0.0999,3.79657 -0.0999,5.59494 0,0.29973 -0.19982,0.39964 -0.39964,0.49955 -0.89919,0.59945 -1.79837,1.29882 -2.69756,1.89828 -0.0999,0.0999 -0.19982,0.0999 -0.39964,0.19982 -0.0999,-0.29973 0,-0.59946 0,-0.89919 z m -4.69575,1.49865 c 0.49955,-0.69937 0.9991,-1.39874 1.59856,-1.9982 0.59945,-0.79927 1.29882,-1.59855 1.89828,-2.39783 0,0 0.0999,0 0.0999,0.0999 0,0.0999 0,0.19982 0,0.29973 -0.0999,1.39874 -0.19982,2.79747 -0.29973,4.1962 0,0.29973 -0.19982,0.49955 -0.39964,0.69937 -0.59946,0.39964 -1.19891,0.79928 -1.79837,1.19892 -0.19982,0.19982 -0.49955,0.29973 -0.79928,0.49954 -0.19982,-0.59945 -0.29973,-1.099 -0.49955,-1.59855 0,-0.49955 0,-0.69937 0.19982,-0.99909 z m -1.19891,1.69846 c 0.19982,0.59946 0.29973,0.99909 0.39964,1.39873 -0.89919,0.59946 -1.79838,1.09901 -2.69756,1.69847 0,0 -0.0999,-0.0999 -0.0999,-0.0999 0.79927,-0.9991 1.49864,-1.89829 2.39783,-2.99729 z m 25.67676,-14.08725 c -0.59946,4.29611 -2.39783,7.89285 -5.39512,10.89014 -2.89737,2.79747 -6.2943,4.59584 -10.09086,5.89467 -2.39783,0.79927 -4.89557,1.29882 -7.39331,1.89828 -2.19801,0.49955 -4.29612,0.9991 -6.49413,1.49864 -0.0999,0 -0.19982,0 -0.39963,0.0999 0,0 0,-0.0999 -0.0999,-0.0999 5.2952,-2.89737 10.39059,-6.09448 15.28616,-9.59132 4.89557,-3.49683 9.89105,-6.99367 14.48689,-10.99005 0.0999,0.19982 0.0999,0.29973 0.0999,0.39964 z"
     id="path4139"
     inkscape:connector-curvature="0"
     style="fill:#a54550" /></svg>